<?xml version="1.0" standalone="no"?>
<!DOCTYPE svg PUBLIC "-//W3C//DTD SVG 20010904//EN"
 "http://www.w3.org/TR/2001/REC-SVG-20010904/DTD/svg10.dtd">
<svg version="1.0" xmlns="http://www.w3.org/2000/svg"
 width="700.000000pt" height="700.000000pt" viewBox="0 0 700.000000 700.000000"
 preserveAspectRatio="xMidYMid meet">
<metadata>
Created by potrace 1.14, written by Peter Selinger 2001-2017
</metadata>
<g transform="translate(0.000000,700.000000) scale(0.100000,-0.100000)"
fill="#000000" stroke="none">
<path d="M0 3882 l0 -3118 372 0 c252 1 375 -2 382 -10 8 -7 11 -130 10 -382
l-1 -372 1615 2 1616 3 0 760 0 761 1500 0 1501 0 3 2377 2 2377 -42 1 c-24 0
-186 1 -360 1 l-316 0 -1 337 c0 185 0 346 0 359 l-1 22 -3140 0 -3140 0 0
-3118z"/>
</g>
</svg>
