<?xml version="1.0" standalone="no"?>
<!DOCTYPE svg PUBLIC "-//W3C//DTD SVG 20010904//EN"
 "http://www.w3.org/TR/2001/REC-SVG-20010904/DTD/svg10.dtd">
<svg version="1.0" xmlns="http://www.w3.org/2000/svg"
 width="1664.000000pt" height="1664.000000pt" viewBox="0 0 1664.000000 1664.000000"
 preserveAspectRatio="xMidYMid meet">
<metadata>
Created by potrace 1.14, written by Peter Selinger 2001-2017
</metadata>
<g transform="translate(0.000000,1664.000000) scale(0.100000,-0.100000)"
fill="#000000" stroke="none">
<path d="M6108 16629 c-6 -4 -8 -16 -5 -28 3 -12 2 -21 -3 -21 -4 0 -4 -16 0
-34 4 -19 5 -37 2 -40 -7 -8 -7 -69 1 -89 4 -10 2 -17 -3 -17 -5 0 -5 -13 0
-30 6 -20 5 -30 -2 -30 -7 0 -7 -4 1 -13 6 -8 8 -17 4 -20 -8 -9 -8 -69 0 -90
4 -10 3 -17 -1 -17 -9 0 -7 -95 3 -109 3 -6 2 -11 -4 -11 -6 0 -6 -11 -1 -30
6 -20 5 -30 -2 -30 -7 0 -7 -4 1 -13 6 -8 8 -17 4 -20 -8 -9 -8 -69 0 -90 4
-10 3 -17 -1 -17 -9 0 -7 -95 3 -109 3 -6 2 -11 -4 -11 -6 0 -6 -11 -1 -30 6
-20 5 -30 -2 -30 -7 0 -7 -4 1 -13 6 -8 8 -17 4 -21 -10 -10 -7 -88 5 -95 8
-5 950 -7 972 -2 10 2 5 1061 -5 1062 -48 5 -959 2 -967 -2z"/>
<path d="M9050 15033 l0 -533 493 0 492 0 -2 527 c0 291 -2 531 -2 534 -1 3
-221 5 -491 5 l-490 0 0 -533z"/>
<path d="M7104 15032 c-20 -3 -20 -4 -21 -532 l0 -528 21 -4 c12 -1 233 -3
491 -2 l470 0 1 532 c0 293 -2 532 -5 533 -20 2 -940 3 -957 1z"/>
<path d="M5115 12928 l0 -1573 -520 -1 -520 0 0 -1600 0 -1599 510 -2 c281 -1
515 -2 520 -2 7 -1 10 -113 10 -318 l0 -318 2458 -1 c1780 -1 2457 2 2458 10
1 6 2 147 2 313 1 166 5 305 10 309 4 4 236 8 515 9 279 1 510 3 513 3 3 1 5
250 5 553 -1 481 1 552 14 558 12 5 274 7 410 2 l25 -1 0 -275 c0 -177 -4
-275 -10 -275 -6 0 -6 -3 0 -8 7 -4 11 -103 11 -277 0 -174 -4 -273 -11 -277
-6 -5 -6 -8 0 -8 7 0 10 -124 10 -355 0 -231 -3 -355 -10 -355 -6 0 -6 -3 0
-8 7 -4 11 -90 11 -237 0 -147 -4 -233 -11 -237 -6 -5 -7 -8 0 -8 7 0 10 -71
10 -197 l0 -198 -1713 0 c-1134 0 -1712 -3 -1713 -10 -1 -5 -2 -147 -4 -315
-1 -168 -3 -308 -4 -311 0 -3 -227 -5 -503 -4 -277 0 -510 -3 -519 -7 -14 -6
-16 -56 -15 -460 1 -249 0 -462 -2 -474 -4 -21 -4 -21 -505 -22 -276 0 -510
-1 -519 -1 -17 -1 -18 -122 -18 -2399 l0 -2398 1565 0 1565 0 1 85 c1 47 0 91
-1 96 -5 22 -3 85 3 91 3 3 2 17 -3 30 -6 15 -6 24 0 24 5 0 7 7 3 17 -5 13
-8 77 -3 86 5 10 2 436 -4 445 -4 7 -3 12 3 12 5 0 8 9 6 21 -7 33 -8 240 -2
246 4 3 2 14 -3 24 -7 12 -7 20 0 24 6 4 7 11 4 17 -6 9 -8 80 -4 103 1 6 1
15 0 20 -5 24 -3 82 4 93 4 7 2 12 -4 12 -7 0 -8 6 -1 18 6 11 6 24 0 34 -6
11 -6 19 1 23 6 4 7 11 4 17 -6 9 -8 80 -4 103 1 6 1 15 0 20 -5 24 -3 82 4
93 4 7 2 12 -4 12 -7 0 -8 6 -1 18 6 11 6 24 0 34 -6 11 -6 19 1 23 6 4 7 11
4 17 -6 9 -8 80 -4 103 1 6 1 15 0 20 -5 24 -3 82 4 93 4 7 2 12 -4 12 -7 0
-8 6 -1 18 6 11 6 24 0 34 -6 11 -6 19 1 23 6 4 7 11 4 17 -6 9 -8 80 -4 103
1 6 1 15 0 20 -4 19 -4 85 1 89 2 2 2 46 -1 96 -3 51 -2 97 2 103 4 6 2 19 -3
28 -6 12 -5 20 1 24 6 4 7 11 4 17 -6 9 -8 80 -4 103 1 6 1 15 0 20 -2 11 -3
73 0 90 1 12 0 175 -2 232 -1 24 1 45 5 49 3 3 2 17 -3 30 -6 15 -6 24 0 24 5
0 7 7 3 17 -7 18 -9 81 -2 87 2 2 2 55 -1 116 -3 62 -2 117 2 123 4 6 2 19 -3
28 -6 12 -5 20 1 24 6 4 7 11 4 17 -6 9 -8 80 -4 103 1 6 1 15 0 20 -2 11 -3
73 0 90 1 12 0 175 -2 232 -1 24 1 45 5 49 3 3 2 17 -3 30 -6 15 -6 24 0 24 5
0 7 7 3 17 -7 18 -9 81 -2 87 2 2 2 55 -1 116 -3 62 -2 117 2 123 4 6 2 19 -3
28 -6 11 -5 20 1 24 5 3 6 13 3 22 -8 20 -8 81 -1 89 4 3 2 19 -2 35 -5 16 -5
31 0 34 4 3 5 17 1 32 l-7 27 -515 0 c-283 -1 -516 2 -519 7 -4 5 -5 448 -1
469 1 3 905 5 2011 4 l2010 -1 -1 21 c-2 171 1 287 7 298 3 4 1 8 -4 8 -6 0
-7 13 -3 33 4 17 4 44 0 59 -4 16 -3 30 2 34 5 3 7 10 4 15 -8 11 -21 10 220
13 110 2 205 3 211 4 8 2 11 550 11 1920 l0 1917 -224 -1 c-234 -1 -232 -2
-223 41 1 6 1 53 0 105 0 52 -1 100 -1 105 0 6 1 56 1 113 1 57 -1 106 -4 109
-3 4 -238 6 -521 7 -458 0 -515 2 -516 15 0 9 -2 261 -2 560 l-2 545 -515 1
c-283 1 -518 3 -521 3 -3 1 -5 461 -5 1023 1 561 -2 1028 -5 1037 -6 16 -45
17 -490 16 l-484 -1 -3 -531 c-1 -293 -6 -532 -10 -533 -4 0 -224 -2 -490 -2
l-482 -2 -1 25 c-1 14 -2 254 -3 535 l-1 509 -982 0 -982 0 -3 214 c-2 118 0
215 3 217 3 2 2 29 -1 60 -3 31 -3 58 0 60 3 2 3 29 0 60 -3 31 -3 58 0 60 3
2 3 29 0 60 -3 31 -3 58 0 60 3 2 3 29 0 60 -3 31 -4 58 -1 60 3 1 5 37 3 79
l-4 76 -491 0 -492 0 0 -1572z m4916 -2068 c4 -61 3 -2214 -1 -2219 -3 -4
-1110 -8 -2460 -8 l-2455 1 0 203 c0 129 4 203 10 203 6 0 6 3 0 8 -7 4 -11
90 -11 237 0 147 4 233 11 237 6 5 7 8 0 8 -14 0 -14 462 0 472 6 5 7 8 0 8
-12 0 -14 618 -2 637 4 6 4 14 -1 17 -6 3 -9 182 -3 206 0 3 1106 5 2456 5
2175 0 2455 -2 2456 -15z m-1951 -6549 c14 -1 16 -163 15 -1598 l0 -1598 -521
-1 -520 -1 0 1601 0 1601 505 -2 c278 0 513 -2 521 -2z"/>
</g>
</svg>
