<?xml version="1.0" standalone="no"?>
<!DOCTYPE svg PUBLIC "-//W3C//DTD SVG 20010904//EN"
 "http://www.w3.org/TR/2001/REC-SVG-20010904/DTD/svg10.dtd">
<svg version="1.0" xmlns="http://www.w3.org/2000/svg"
 width="1512.000000pt" height="1512.000000pt" viewBox="0 0 1512.000000 1512.000000"
 preserveAspectRatio="xMidYMid meet">
<metadata>
Created by potrace 1.14, written by Peter Selinger 2001-2017
</metadata>
<g transform="translate(0.000000,1512.000000) scale(0.100000,-0.100000)"
fill="#000000" stroke="none">
<path d="M2929 15116 c-2 -2 -42 -7 -89 -10 -47 -3 -96 -8 -110 -10 -14 -3
-61 -10 -105 -16 -67 -10 -204 -38 -265 -54 -8 -2 -43 -11 -76 -20 -166 -43
-400 -135 -589 -231 -287 -147 -540 -331 -775 -565 -240 -239 -418 -481 -572
-780 -36 -69 -75 -150 -87 -180 -12 -30 -26 -64 -31 -75 -95 -206 -189 -592
-218 -895 -9 -100 -9 -9332 0 -9435 11 -113 17 -158 35 -255 8 -47 16 -94 18
-105 2 -16 15 -72 29 -130 2 -5 6 -23 10 -40 21 -84 121 -364 166 -464 193
-433 473 -803 856 -1131 81 -70 362 -270 379 -270 3 0 22 -10 43 -23 75 -47
230 -126 337 -172 111 -47 350 -131 415 -146 19 -4 75 -17 123 -28 48 -12 105
-24 125 -27 20 -3 44 -7 52 -9 21 -6 140 -23 230 -32 95 -10 9336 -11 9448 -1
99 9 312 43 402 63 36 9 76 18 90 21 49 10 287 87 375 122 211 82 425 196 620
330 178 121 279 206 445 372 375 376 639 823 786 1333 35 120 78 317 89 399 3
24 7 61 10 83 3 22 9 72 13 110 10 94 9 9327 -1 9435 -29 315 -115 658 -238
945 -95 225 -222 444 -369 640 -114 152 -164 209 -305 350 -453 452 -1041 755
-1675 861 -25 4 -47 8 -50 9 -3 1 -34 4 -70 9 -36 4 -78 10 -95 13 -32 7
-9369 16 -9376 9z"/>
</g>
</svg>
