<svg width="97mm" height="111mm" version="1.1" viewBox="0 0 97 111" xmlns="http://www.w3.org/2000/svg"><g stroke-width=".9952"><path d="m34.64 0v6.938h27.71v-6.938h-20.79zm27.71 6.938v6.937h6.929v-6.937zm6.929 6.937v6.938h6.928v-6.938zm6.928 6.938v13.87h6.929v-13.87zm6.929 13.87v13.87h6.928v-13.87zm6.928 13.87v27.75h6.929v-27.75zm0 27.75h-6.928v13.87h6.928v-6.937zm-6.928 13.87h-13.86v6.938h-6.929v6.937h13.86v-6.937h6.929zm-20.79 13.87h-27.71v6.938h27.71zm-27.71 0v-6.937h-6.929v6.937zm-6.929-6.937v-6.938h-13.86v6.938h6.929zm-13.86-6.938v-13.87h-6.928v13.87zm-6.928-13.87v-27.75h-6.929v27.75zm0-27.75h6.928v-13.87h-6.928v6.937zm6.928-13.87h6.929v-13.87h-6.929v6.937zm6.929-13.87h6.928v-6.938h-6.928zm6.928-6.938h6.929v-6.937h-6.929z"/><path class="mainColor" d="m55.43 13.87v20.81h6.928v6.937h13.86v-20.81h-6.928v-6.938h-6.929zm-34.64 6.938v13.87h-6.929v13.87h13.86v-6.938h6.929v-20.81h-6.929zm20.79 27.75v34.69h20.79v-6.938h6.929v-20.81h-6.929v-6.937h-13.86zm27.71 27.75v13.87h13.86v-20.81h-6.929v6.937zm-34.64-20.81v20.81h6.928v-20.81zm-27.71 6.938v13.87h6.928v13.87h13.86v-20.81h-6.928v-6.938h-6.929z"/><path d="m62.36 13.87v6.938h6.929v-6.938zm6.929 6.938v13.87h6.928v-13.87zm-48.5 0v13.87h6.928v-13.87zm0 13.87h-6.929v13.87h6.929v-6.938zm-13.86 27.75v13.87h6.928v-13.87zm6.928 13.87v13.87h6.929v-13.87zm62.36 6.938v6.937h6.929v-6.937z" opacity=".2"/></g></svg>
