<svg width="97" height="111" viewBox="0 0 97 111" fill="none" xmlns="http://www.w3.org/2000/svg">
<g clip-path="url(#clip0)">
<path d="M62.3548 6.5H34.6341V13.8777H27.5V34.5H21V48.5H6.5V62.5H14V76.5V90.5H27.6983V97.5H34.6339V104.5H62.3456V97.5H69.5V90.5H76V83.5H83.5V76.3103H90.5V48.5543H83.5V34.6834H69V20.5H62.3548V6.5Z" fill="white"/>
<path d="M34.64 0V6.938H62.35V0H41.56H34.64ZM62.35 6.938V13.875H69.279V6.938H62.35ZM69.279 13.875V20.813H76.207V13.875H69.279ZM76.207 20.813V34.683H83.136V20.813H76.207ZM83.136 34.683V48.553H90.064V34.683H83.136ZM90.064 48.553V76.303H96.993V48.553H90.064ZM90.064 76.303H83.136V90.173H90.064V83.236V76.303ZM83.136 90.173H69.276V97.111H62.347V104.048H76.207V97.111H83.136V90.173ZM62.346 104.043H34.636V110.981H62.346V104.043ZM34.636 104.043V97.106H27.707V104.043H34.636ZM27.707 97.106V90.168H13.847V97.106H20.776H27.707ZM13.847 90.168V76.298H6.91899V90.168H13.847ZM6.91899 76.298V48.548H-0.0100098V76.298H6.91899ZM6.91899 48.548H13.847V34.678H6.91899V41.615V48.548ZM13.847 34.678H20.776V20.808H13.847V27.745V34.678ZM20.776 20.808H27.704V13.87H20.776V20.808ZM27.704 13.87H34.633V6.933H27.704V13.87Z" fill="black"/>
<path d="M55.43 13.87V34.68H62.358V41.617H76.218V20.807H69.29V13.869H62.361L55.43 13.87ZM20.79 20.808V34.678H13.861V48.548H27.721V41.61H34.65V20.8H27.721L20.79 20.808ZM41.58 48.558V83.248H62.37V76.31H69.299V55.5H62.37V48.563H48.51L41.58 48.558ZM69.29 76.308V90.178H83.15V69.368H76.221V76.305L69.29 76.308ZM34.65 55.498V76.308H41.578V55.498H34.65ZM6.94 62.436V76.306H13.868V90.176H27.728V69.366H20.8V62.428H13.871L6.94 62.436Z" fill="#D83A3A"/>
<path opacity="0.2" d="M62.36 13.87V20.808H69.289V13.87H62.36ZM69.289 20.808V34.678H76.217V20.808H69.289ZM20.789 20.808V34.678H27.717V20.808H20.789ZM20.789 34.678H13.86V48.548H20.789V41.61V34.678ZM6.92899 62.428V76.298H13.857V62.428H6.92899ZM13.857 76.298V90.168H20.786V76.298H13.857ZM76.217 83.236V90.173H83.146V83.236H76.217Z" fill="black"/>
</g>
<defs>
<clipPath id="clip0">
<rect width="97" height="111" fill="white"/>
</clipPath>
</defs>
</svg>
