<svg width="78" height="78" viewBox="0 0 78 78" fill="none" xmlns="http://www.w3.org/2000/svg">
<path d="M69 1H1V68.5H9.5V77H43.5V60H77V9H69V1Z" fill="black" stroke="white" stroke-width="2"/>
<path d="M16 17C16 34.6178 16 52.2356 16 69.8535C22.8887 69.8535 29.7774 69.8535 36.666 69.8535C36.666 64.1556 36.666 58.4577 36.666 52.7598C47.9909 52.7598 59.3158 52.7598 70.6406 52.7598C70.6406 40.1732 70.6406 27.5866 70.6406 15C52.4271 15 34.2135 15 16 15C16 15.6667 16 16.3333 16 17ZM43.3203 27.332C45.5384 27.332 47.7565 27.332 49.9746 27.332C49.9746 31.6966 49.9746 36.0612 49.9746 40.4258C45.5384 40.4258 41.1022 40.4258 36.666 40.4258C36.666 36.0612 36.666 31.6966 36.666 27.332C38.8841 27.332 41.1022 27.332 43.3203 27.332Z" fill="#FF0000"/>
</svg>
