<svg width="394" height="197" viewBox="0 0 394 197" fill="none" xmlns="http://www.w3.org/2000/svg">
<g clip-path="url(#clip0_108_305)">
<path d="M165.5 79V69H175.5V79H165.5Z" fill="#9955FF"/>
<path d="M189 187.568H400.079Z" fill="white"/>
<path d="M189 187.568H400.079" stroke="#8A8A8A" stroke-width="0.4"/>
<path d="M189 177.695H400.079Z" fill="white"/>
<path d="M189 177.695H400.079" stroke="#8A8A8A" stroke-width="0.4"/>
<path d="M189 167.823H400.079Z" fill="white"/>
<path d="M189 167.823H400.079" stroke="#8A8A8A" stroke-width="0.4"/>
<path d="M189 157.95H400.079Z" fill="white"/>
<path d="M189 157.95H400.079" stroke="#8A8A8A" stroke-width="0.4"/>
<path d="M189 148.077H400.079Z" fill="white"/>
<path d="M189 148.077H400.079" stroke="#8A8A8A" stroke-width="0.4"/>
<path d="M189 138.205H400.079Z" fill="white"/>
<path d="M189 138.205H400.079" stroke="#8A8A8A" stroke-width="0.4"/>
<path d="M189 128.332H400.079Z" fill="white"/>
<path d="M189 128.332H400.079" stroke="#8A8A8A" stroke-width="0.4"/>
<path d="M189 118.459H400.079Z" fill="white"/>
<path d="M189 118.459H400.079" stroke="#8A8A8A" stroke-width="0.4"/>
<path d="M189 108.587H400.079Z" fill="white"/>
<path d="M189 108.587H400.079" stroke="#8A8A8A" stroke-width="0.4"/>
<path d="M189 98.7143H400.079Z" fill="white"/>
<path d="M189 98.7143H400.079" stroke="#8A8A8A" stroke-width="0.4"/>
<path d="M189 88.8417H400.079Z" fill="white"/>
<path d="M189 88.8417H400.079" stroke="#8A8A8A" stroke-width="0.4"/>
<path d="M189 78.9691H400.079Z" fill="white"/>
<path d="M189 78.9691H400.079" stroke="#8A8A8A" stroke-width="0.4"/>
<path d="M189 88.8417H400.079Z" fill="white"/>
<path d="M189 88.8417H400.079" stroke="#8A8A8A" stroke-width="0.4"/>
<path d="M189 69.1083H400.079Z" fill="white"/>
<path d="M189 69.1083H400.079" stroke="#8A8A8A" stroke-width="0.4"/>
<path d="M189 59.2357H400.079Z" fill="white"/>
<path d="M189 59.2357H400.079" stroke="#8A8A8A" stroke-width="0.4"/>
<path d="M189 49.363H400.079Z" fill="white"/>
<path d="M189 49.363H400.079" stroke="#8A8A8A" stroke-width="0.4"/>
<path d="M189 39.4908H400.079Z" fill="white"/>
<path d="M189 39.4908H400.079" stroke="#8A8A8A" stroke-width="0.4"/>
<path d="M189 29.6182H400.079Z" fill="white"/>
<path d="M189 29.6182H400.079" stroke="#8A8A8A" stroke-width="0.4"/>
<path d="M189 19.7456H400.079Z" fill="white"/>
<path d="M189 19.7456H400.079" stroke="#8A8A8A" stroke-width="0.4"/>
<path d="M189 9.87299H400.079Z" fill="white"/>
<path d="M189 9.87299H400.079" stroke="#8A8A8A" stroke-width="0.4"/>
<path d="M189 0.000488281H400.079Z" fill="white"/>
<path d="M189 0.000488281H400.079" stroke="#8A8A8A" stroke-width="0.4"/>
<path d="M392.176 211.274V0Z" fill="white"/>
<path d="M392.176 211.274V0" stroke="#8A8A8A" stroke-width="0.4"/>
<path d="M382.312 211.274V0Z" fill="white"/>
<path d="M382.312 211.274V0" stroke="#8A8A8A" stroke-width="0.4"/>
<path d="M372.449 211.274V0Z" fill="white"/>
<path d="M372.449 211.274V0" stroke="#8A8A8A" stroke-width="0.4"/>
<path d="M362.585 211.274V0Z" fill="white"/>
<path d="M362.585 211.274V0" stroke="#8A8A8A" stroke-width="0.4"/>
<path d="M352.722 211.274V0Z" fill="white"/>
<path d="M352.722 211.274V0" stroke="#8A8A8A" stroke-width="0.4"/>
<path d="M342.858 211.274V0Z" fill="white"/>
<path d="M342.858 211.274V0" stroke="#8A8A8A" stroke-width="0.4"/>
<path d="M332.995 211.274V0Z" fill="white"/>
<path d="M332.995 211.274V0" stroke="#8A8A8A" stroke-width="0.4"/>
<path d="M323.132 211.274V0Z" fill="white"/>
<path d="M323.132 211.274V0" stroke="#8A8A8A" stroke-width="0.4"/>
<path d="M313.268 211.274V0Z" fill="white"/>
<path d="M313.268 211.274V0" stroke="#8A8A8A" stroke-width="0.4"/>
<path d="M303.405 211.274V0Z" fill="white"/>
<path d="M303.405 211.274V0" stroke="#8A8A8A" stroke-width="0.4"/>
<path d="M293.541 211.274V0Z" fill="white"/>
<path d="M293.541 211.274V0" stroke="#8A8A8A" stroke-width="0.4"/>
<path d="M283.678 211.274V0Z" fill="white"/>
<path d="M283.678 211.274V0" stroke="#8A8A8A" stroke-width="0.4"/>
<path d="M293.541 211.274V0Z" fill="white"/>
<path d="M293.541 211.274V0" stroke="#8A8A8A" stroke-width="0.4"/>
<path d="M273.826 211.274V0Z" fill="white"/>
<path d="M273.826 211.274V0" stroke="#8A8A8A" stroke-width="0.4"/>
<path d="M263.962 211.274V0Z" fill="white"/>
<path d="M263.962 211.274V0" stroke="#8A8A8A" stroke-width="0.4"/>
<path d="M254.099 211.274V0Z" fill="white"/>
<path d="M254.099 211.274V0" stroke="#8A8A8A" stroke-width="0.4"/>
<path d="M244.235 211.274V0Z" fill="white"/>
<path d="M244.235 211.274V0" stroke="#8A8A8A" stroke-width="0.4"/>
<path d="M234.372 211.274V0Z" fill="white"/>
<path d="M234.372 211.274V0" stroke="#8A8A8A" stroke-width="0.4"/>
<path d="M224.508 211.274V0Z" fill="white"/>
<path d="M224.508 211.274V0" stroke="#8A8A8A" stroke-width="0.4"/>
<path d="M214.645 211.274V0Z" fill="white"/>
<path d="M214.645 211.274V0" stroke="#8A8A8A" stroke-width="0.4"/>
<path d="M204.781 211.274V0Z" fill="white"/>
<path d="M204.781 211.274V0" stroke="#8A8A8A" stroke-width="0.4"/>
<path d="M-18 187.568H193.079Z" fill="white"/>
<path d="M-18 187.568H193.079" stroke="#8A8A8A" stroke-width="0.4"/>
<path d="M-18 177.695H193.079Z" fill="white"/>
<path d="M-18 177.695H193.079" stroke="#8A8A8A" stroke-width="0.4"/>
<path d="M-18 167.823H193.079Z" fill="white"/>
<path d="M-18 167.823H193.079" stroke="#8A8A8A" stroke-width="0.4"/>
<path d="M-18 157.95H193.079Z" fill="white"/>
<path d="M-18 157.95H193.079" stroke="#8A8A8A" stroke-width="0.4"/>
<path d="M-18 148.077H193.079Z" fill="white"/>
<path d="M-18 148.077H193.079" stroke="#8A8A8A" stroke-width="0.4"/>
<path d="M-18 138.205H193.079Z" fill="white"/>
<path d="M-18 138.205H193.079" stroke="#8A8A8A" stroke-width="0.4"/>
<path d="M-18 128.332H193.079Z" fill="white"/>
<path d="M-18 128.332H193.079" stroke="#8A8A8A" stroke-width="0.4"/>
<path d="M-18 118.459H193.079Z" fill="white"/>
<path d="M-18 118.459H193.079" stroke="#8A8A8A" stroke-width="0.4"/>
<path d="M-18 108.587H193.079Z" fill="white"/>
<path d="M-18 108.587H193.079" stroke="#8A8A8A" stroke-width="0.4"/>
<path d="M-18 98.7143H193.079Z" fill="white"/>
<path d="M-18 98.7143H193.079" stroke="#8A8A8A" stroke-width="0.4"/>
<path d="M-18 88.8417H193.079Z" fill="white"/>
<path d="M-18 88.8417H193.079" stroke="#8A8A8A" stroke-width="0.4"/>
<path d="M-18 78.9691H193.079Z" fill="white"/>
<path d="M-18 78.9691H193.079" stroke="#8A8A8A" stroke-width="0.4"/>
<path d="M-18 88.8417H193.079Z" fill="white"/>
<path d="M-18 88.8417H193.079" stroke="#8A8A8A" stroke-width="0.4"/>
<path d="M-18 69.1083H193.079Z" fill="white"/>
<path d="M-18 69.1083H193.079" stroke="#8A8A8A" stroke-width="0.4"/>
<path d="M-18 59.2357H193.079Z" fill="white"/>
<path d="M-18 59.2357H193.079" stroke="#8A8A8A" stroke-width="0.4"/>
<path d="M-18 49.363H193.079Z" fill="white"/>
<path d="M-18 49.363H193.079" stroke="#8A8A8A" stroke-width="0.4"/>
<path d="M-18 39.4908H193.079Z" fill="white"/>
<path d="M-18 39.4908H193.079" stroke="#8A8A8A" stroke-width="0.4"/>
<path d="M-18 29.6182H193.079Z" fill="white"/>
<path d="M-18 29.6182H193.079" stroke="#8A8A8A" stroke-width="0.4"/>
<path d="M-18 19.7456H193.079Z" fill="white"/>
<path d="M-18 19.7456H193.079" stroke="#8A8A8A" stroke-width="0.4"/>
<path d="M-18 9.87299H193.079Z" fill="white"/>
<path d="M-18 9.87299H193.079" stroke="#8A8A8A" stroke-width="0.4"/>
<path d="M-18 0.000488281H193.079Z" fill="white"/>
<path d="M-18 0.000488281H193.079" stroke="#8A8A8A" stroke-width="0.4"/>
<path d="M185.176 211.274V0Z" fill="white"/>
<path d="M185.176 211.274V0" stroke="#8A8A8A" stroke-width="0.4"/>
<path d="M175.312 211.274V0Z" fill="white"/>
<path d="M175.312 211.274V0" stroke="#8A8A8A" stroke-width="0.4"/>
<path d="M165.449 211.274V0Z" fill="white"/>
<path d="M165.449 211.274V0" stroke="#8A8A8A" stroke-width="0.4"/>
<path d="M155.585 211.274V0Z" fill="white"/>
<path d="M155.585 211.274V0" stroke="#8A8A8A" stroke-width="0.4"/>
<path d="M145.722 211.274V0Z" fill="white"/>
<path d="M145.722 211.274V0" stroke="#8A8A8A" stroke-width="0.4"/>
<path d="M135.858 211.274V0Z" fill="white"/>
<path d="M135.858 211.274V0" stroke="#8A8A8A" stroke-width="0.4"/>
<path d="M125.995 211.274V0Z" fill="white"/>
<path d="M125.995 211.274V0" stroke="#8A8A8A" stroke-width="0.4"/>
<path d="M116.132 211.274V0Z" fill="white"/>
<path d="M116.132 211.274V0" stroke="#8A8A8A" stroke-width="0.4"/>
<path d="M106.268 211.274V0Z" fill="white"/>
<path d="M106.268 211.274V0" stroke="#8A8A8A" stroke-width="0.4"/>
<path d="M96 211L96.4045 0Z" fill="white"/>
<path d="M96 211L96.4045 0" stroke="#8A8A8A" stroke-width="0.4"/>
<path d="M86.5411 211.274V0Z" fill="white"/>
<path d="M86.5411 211.274V0" stroke="#8A8A8A" stroke-width="0.4"/>
<path d="M195.039 211.274V0Z" fill="white"/>
<path d="M195.039 211.274V0" stroke="#8A8A8A" stroke-width="0.4"/>
<path d="M76.6776 211.274V0Z" fill="white"/>
<path d="M76.6776 211.274V0" stroke="#8A8A8A" stroke-width="0.4"/>
<path d="M195.039 211.274V0Z" fill="white"/>
<path d="M195.039 211.274V0" stroke="#8A8A8A" stroke-width="0.4"/>
<path d="M66.826 211.274V0Z" fill="white"/>
<path d="M66.826 211.274V0" stroke="#8A8A8A" stroke-width="0.4"/>
<path d="M56.9621 211.274V0Z" fill="white"/>
<path d="M56.9621 211.274V0" stroke="#8A8A8A" stroke-width="0.4"/>
<path d="M47.0986 211.274V0Z" fill="white"/>
<path d="M47.0986 211.274V0" stroke="#8A8A8A" stroke-width="0.4"/>
<path d="M37.2351 211.274V0Z" fill="white"/>
<path d="M37.2351 211.274V0" stroke="#8A8A8A" stroke-width="0.4"/>
<path d="M27.3717 211.274V0Z" fill="white"/>
<path d="M27.3717 211.274V0" stroke="#8A8A8A" stroke-width="0.4"/>
<path d="M17.5081 211.274V0Z" fill="white"/>
<path d="M17.5081 211.274V0" stroke="#8A8A8A" stroke-width="0.4"/>
<path d="M7.64465 211.274V0Z" fill="white"/>
<path d="M7.64465 211.274V0" stroke="#8A8A8A" stroke-width="0.4"/>
</g>
<defs>
<clipPath id="clip0_108_305">
<rect width="394" height="197" fill="white"/>
</clipPath>
</defs>
</svg>
