<svg width="48" height="11" viewBox="0 0 48 11" fill="none" xmlns="http://www.w3.org/2000/svg" class="witnet-logo">
<path d="M12.6366 3.92059L14.8314 5.28395L12.6366 6.64822C12.7962 6.22442 12.8897 5.76418 12.8897 5.28395C12.8897 4.80267 12.7962 4.34569 12.6366 3.92059ZM5.37816 3.92059C5.21943 4.34569 5.12472 4.80476 5.12472 5.28395C5.12472 5.76418 5.21604 6.2222 5.37816 6.64626L3.18419 5.28395L5.37816 3.92059ZM9.00799 2.21352C10.7071 2.21352 12.0739 3.58341 12.0739 5.28395C12.0739 6.98435 10.7049 8.35189 9.00799 8.35189C7.30732 8.35189 5.93861 6.982 5.93861 5.28395C5.93861 3.58563 7.30967 2.21352 9.00799 2.21352V2.21352ZM9.00799 0.721222L8.62796 0.955851L7.12469 1.88979C7.01678 1.95028 6.91436 2.01416 6.81285 2.08471L1.66772 5.28395L6.81285 8.4807C6.91658 8.55111 7.0224 8.61643 7.13226 8.6781L9.00995 9.84314L10.8568 8.69443C10.8613 8.69129 10.8666 8.68685 10.8712 8.6845C10.9856 8.62166 11.0981 8.55111 11.2059 8.47547L16.3501 5.28395L11.2038 2.08693C11.1012 2.01651 10.9955 1.94819 10.8856 1.8877L9.00799 0.721222Z" fill="#1c1c1c"/>
<path d="M17.1043 6.0086C16.8674 6.01082 16.6098 6.07457 16.3501 6.22651L9.7666 10.3144L9.83257 10.3541C10.0178 10.4621 10.2611 10.538 10.5308 10.5325C10.7677 10.5303 11.0265 10.4675 11.2865 10.3144L12.5802 9.51066L17.8663 6.22442L17.7991 6.18248C17.6131 6.07902 17.374 6.00625 17.1043 6.0086" fill="#1c1c1c"/>
<path d="M7.48365 0.0319637C7.24706 0.0341826 6.98918 0.0979362 6.72842 0.250001L5.4343 1.05513L0.145996 4.34125C0.488534 4.57026 1.06792 4.68796 1.66469 4.34125L8.2479 0.252092L8.18192 0.212507C7.99707 0.102508 7.75578 0.027522 7.48365 0.0319637Z" fill="#1c1c1c"/>
<path d="M31.5235 1.99561H30.4045V8.60193H31.5235V4.73656H32.5156V3.60235H31.5235V1.99561Z" fill="#1c1c1c"/>
<path d="M44.9698 3.60235V1.99561H43.8508V8.60193H44.9698V4.73656H45.9621V3.60235H44.9698Z" fill="#1c1c1c"/>
<path d="M28.1458 3.60235H29.2469V8.60193H28.1458V3.60235Z" fill="#1c1c1c"/>
<path d="M28.1536 1.99561H29.2384V3.15203H28.1536V1.99561Z" fill="#1c1c1c"/>
<path d="M25.889 7.50194H23.9882V3.60235H22.8882V7.50194H21.2364C21.0095 7.50194 20.8245 7.31683 20.8245 7.09004V3.60235H19.7241V7.56896C19.7241 8.1396 20.1868 8.60193 20.7571 8.60193H26.9904V3.60235H25.889V7.50194Z" fill="#1c1c1c"/>
<path d="M36.5858 3.60235H33.2424V8.59866H34.3426V4.70351H36.1068C36.3335 4.70351 36.5188 4.88732 36.5188 5.11529V8.59866H37.6189V4.63636C37.6189 4.06468 37.1561 3.60235 36.5858 3.60235" fill="#1c1c1c"/>
<path d="M40.1563 4.65282C40.6606 4.3841 41.1486 4.47659 41.5603 4.81691L39.4469 5.94028C39.403 5.40387 39.6341 4.93043 40.1563 4.65282ZM41.6219 7.36739C40.9789 7.70992 40.2344 7.52507 39.7685 6.85959L43.2112 5.02946C43.1529 4.88954 43.0812 4.75642 42.9998 4.63075C42.9811 4.60227 42.9623 4.57457 42.9436 4.54714C42.4798 3.88845 41.7144 3.45682 40.8489 3.45682C40.5076 3.45682 40.1839 3.52397 39.8865 3.64507C39.8634 3.65513 39.8413 3.66284 39.8194 3.67394C39.7288 3.71339 39.642 3.75846 39.5561 3.80915C39.479 3.85435 39.4052 3.90387 39.3336 3.95586C38.7004 4.42159 38.2874 5.17042 38.2874 6.01722C38.2874 7.43257 39.4337 8.57881 40.8489 8.57881C42.1331 8.57881 43.1934 7.63298 43.3787 6.39948C43.1021 6.39843 42.3666 6.39621 42.362 6.39621C42.2695 6.81347 42.0043 7.16489 41.6219 7.36738" fill="#1c1c1c"/>
<path d="M46.179 7.48104H47.2967V8.59892H46.179V7.48104Z" fill="#41BEA5"/>
</svg>
