<?xml version="1.0" encoding="UTF-8" standalone="no"?>
<svg
   width="195.90234pt"
   height="136.10547pt"
   viewBox="0 0 195.90234 136.10547"
   version="1.2"
   id="svg2206"
   sodipodi:docname="WittyCreaturesPixelArt.svg"
   inkscape:version="1.1 (c4e8f9ed74, 2021-05-24)"
   xmlns:inkscape="http://www.inkscape.org/namespaces/inkscape"
   xmlns:sodipodi="http://sodipodi.sourceforge.net/DTD/sodipodi-0.dtd"
   xmlns="http://www.w3.org/2000/svg"
   xmlns:svg="http://www.w3.org/2000/svg">
  <defs
     id="defs2210" />
  <sodipodi:namedview
     id="namedview2208"
     pagecolor="#ffffff"
     bordercolor="#666666"
     borderopacity="1.0"
     inkscape:pageshadow="2"
     inkscape:pageopacity="0.0"
     inkscape:pagecheckerboard="0"
     inkscape:document-units="pt"
     showgrid="false"
     fit-margin-top="0"
     fit-margin-left="0"
     fit-margin-right="0"
     fit-margin-bottom="0"
     inkscape:zoom="2.5069305"
     inkscape:cx="107.10309"
     inkscape:cy="90.748426"
     inkscape:window-width="2560"
     inkscape:window-height="1381"
     inkscape:window-x="0"
     inkscape:window-y="0"
     inkscape:window-maximized="1"
     inkscape:current-layer="svg2206" />
  <g
     id="surface32164"
     style="fill:#f8971e;fill-opacity:1"
     transform="translate(-66.394531,-29.585938)">
    <path
       style="fill:#f8971e;fill-opacity:1;fill-rule:nonzero;stroke:none"
       d="m 159.45703,130.03516 h -3.13281 v 3.2539 h 3.13281 z m -19.25,-71.277348 h -3.11328 v 6.464844 h 3.11328 z m 57.83984,-22.582031 h -3.10937 v 12.875 h 3.10937 z M 149.92969,142.9375 v 12.91797 h 3.17968 v -6.35938 h 3.11719 v -9.6875 h -3.17969 v 3.12891 z m 28.91406,-35.50781 h -9.59766 v 3.19922 h -3.21484 v 3.18359 h -3.27734 v 3.21484 h 3.32421 v 3.27344 h 6.41407 v -9.72656 h 6.35156 z m -9.55859,45.25 v -19.37891 h 3.14062 v -3.27734 h -6.39453 v 16.16406 h -3.29688 v 6.49219 z m 35.1875,-48.59766 h -22.35547 v 3.31641 h 6.3164 v 3.21094 h -3.10156 v 3.1289 h 6.38281 v -3.15625 h 9.6211 v -3.21484 h 3.13672 z m -9.60938,-9.695311 h -3.12109 V 74.839844 h 3.11718 v -16.09375 h -3.19531 v 6.535156 h -3.18359 v 16.183594 h -3.12891 v 3.214844 h 3.08203 v 9.777343 h -3.10547 v 3.109375 h 9.53516 z m -41.77344,16.218751 h -6.40625 v 3.14844 h -3.1875 v -3.15235 h -6.42187 v -9.7539 h -3.19141 v -9.570316 h -3.21875 v 6.3125 h -3.1875 v 12.988286 h -3.21875 v 9.7539 h -3.21484 v 3.21875 h -3.19141 v 3.17188 h -6.39062 v -3.13672 h -3.20313 v -19.52735 h 3.14844 V 84.667969 h 3.15625 v -29.125 h -6.30859 v 3.128906 h 3.11718 v 6.550781 h -3.13671 v 3.203125 H 92.226562 V 65.277344 H 89.027344 V 49.117188 h 3.15625 v -3.378907 h 3.1875 v -3.1875 H 98.5625 v -3.179687 h 12.82813 v 3.113281 h 6.42187 v 3.214844 h 3.19141 V 58.6875 h 3.19531 v 22.730469 h -3.12109 v 16.136719 h 3.14062 V 87.875 h 3.1875 V 81.453125 H 130.625 V 55.523438 h 3.21875 v -3.214844 h 3.1875 v -3.175782 h 6.39453 v 3.136719 h 3.19922 v 16.164063 h -3.14453 v 6.417968 h -3.16016 v 16.3125 h 3.12891 v -3.292968 h 3.1875 V 71.710938 h 3.21875 v -6.421876 h 3.1875 v -3.375 h 3.21875 v -3.1875 h 3.21875 v -3.214843 h 6.55078 v -3.191407 h 9.60156 v -3.214843 h 6.42188 V 36.148438 h 3.21484 v -6.5625 h 12.80469 v 3.113281 h 3.21484 v -3.097657 h 12.78906 v 3.109376 h -3.14062 v 12.984374 h -3.16016 v 3.339844 h 19.14453 v -3.28125 h 12.83204 v -3.21875 h 3.3164 V 32.78125 h -3.24609 v -3.183594 h 9.6875 v 3.117188 h 3.17578 v 16.351562 h -3.125 v 3.214844 h -3.21484 v 3.1875 h -16.16797 v 3.1875 H 207.73437 V 61.875 h -3.1875 v 12.984375 h -3.19921 v 9.757813 h 3.11718 v 9.78125 h -3.10156 v 3.175781 h 12.69922 v -3.140625 h -3.11719 v -3.1875 h -3.17969 v -6.582032 h 3.125 V 71.679688 h 3.21875 v -3.15625 h 3.19141 v 3.109374 h 3.17969 v 6.578126 h -3.08985 v 9.585937 h 3.125 v -3.125 h 3.17579 V 68.511719 h -3.10157 v -3.214844 h 3.10938 v -3.34375 h 6.42187 v 6.480469 h 3.17969 v 3.21875 h -3.125 v 9.753906 h -3.19141 v 9.78125 h -3.19921 v 6.367188 h 9.55078 v -3.113282 h 3.1875 v -3.21875 h 3.19922 V 87.875 h -3.11719 v -3.1875 h 3.13281 v -3.203125 h 3.35156 v 3.144531 h 3.21875 v 3.1875 h 3.17578 v 9.78125 h -3.1289 v 3.187504 h -3.1875 v 3.21875 h -3.37891 v 3.34765 h -9.625 v 3.19922 h -6.39453 v -3.11328 h -9.625 v 3.12891 h -3.19141 v 3.1875 h -3.21484 v 3.21484 h -6.39453 v 3.37891 h -6.42188 v 3.1875 h -9.625 V 126.75 h -3.1914 v 12.96094 h -3.16406 v 16.15625 h 3.10937 v -9.67969 h 3.21875 v -12.80859 h 6.39063 v 16.08593 h 3.21875 v -3.28906 h 3.1875 v -12.77344 h 6.39062 v 9.51563 h -3.08984 v 9.78125 h 6.30859 v 6.39453 h -3.15234 v 3.35547 h -6.39453 v -3.27735 h -6.39454 v 3.26172 h -6.42187 v -3.24609 h -6.42188 v 3.27734 h -3.21875 v 3.22657 h -6.41015 v -6.51954 h -6.55469 v 3.25782 h -6.39062 v -3.24219 h -6.42188 v 3.25391 h -9.57031 v -19.47657 h 3.11328 v -6.39062 h 3.21875 v -3.21485 h 3.1875 v -3.3789 h 3.19531 v -3.18359 h -3.11719 v -12.95704 h 3.14454 v -3.2539 c 1.05468,-0.004 2.11328,-0.004 3.2539,-0.004 v -3.22265 h 3.19141 v -3.37891 h 6.49609 v -3.1875 h -6.48047 V 84.632812 h 3.19532 v -3.214843 h 3.28125 v -3.21875 h -3.26563 v -3.347657 h 3.35938 v -3.214843 h 3.1914 v -3.128907 h 3.1875 v 3.195313 h 3.15235 v 3.1875 h -3.19922 v 3.375 h -3.11328 v 3.214844 h 3.10156 v 3.191406 h -3.11719 v 9.753906 h 3.10547 v 3.214844 h -3.09375 v 3.121095 h 9.51953 v -6.363282 h -3.09766 V 78.207031 h 3.08594 V 58.761719 h -6.38672 v 3.164062 h -6.39453 v 3.347657 h -3.3789 v 3.214843 h -3.1875 v 6.421875 h -3.21485 v 12.957032 h -3.16797 z m 0,0"
       id="path2195" />
    <path
       style="fill:#f8971e;fill-opacity:1;fill-rule:nonzero;stroke:none"
       d="m 66.394531,126.76953 h 3.195313 v -6.39062 h 3.1875 v -6.54688 h 3.1875 v -3.21484 h 6.421875 v -3.16406 h 16.191406 v 3.10546 h 3.164065 v 16.1875 h -3.109378 v 3.1875 h -6.417968 v 3.35938 h -9.757813 v -6.46875 h -3.199219 v 19.28515 h 6.34375 v 3.35938 h 6.550782 v -3.30078 h 3.214844 v -3.16016 h 3.21875 v 3.11719 h 3.160152 v 3.375 h -3.124996 v 9.59375 H 95.40625 v 3.375 h -3.214844 v 3.22266 H 72.804688 v -3.22266 h -3.214844 v -6.54688 h -3.195313 z m 0,0"
       id="path2197" />
    <path
       style="fill:#f8971e;fill-opacity:1;fill-rule:nonzero;stroke:none"
       d="m 252.77344,136.5 h 3.12109 v -3.10938 h -3.12109 z m -16.25782,-3.11328 h -3.10546 v 9.52344 h 3.10546 z M 236.5,159.11719 h -3.10547 v 3.3125 h -3.21484 v -3.26563 h -6.42188 v -16.17578 h -3.1914 v 19.44922 h -9.60547 v -16.25781 h 3.11718 v -3.21485 h -6.30468 v -12.96093 h 3.10937 v -3.17969 h 6.40235 v 6.47656 h -3.10938 v 3.21875 h 9.53516 v 3.17578 h 3.21875 v -6.33594 h 3.1875 v -3.32421 h 9.625 v 3.27343 h 3.35156 v 3.17969 h 3.21875 v -6.48437 h 6.39062 v -3.16797 h 6.42188 v 3.10547 h 3.16406 v 9.78515 h -9.50781 v 3.1875 h 6.35547 v 3.21485 h 3.16015 v 9.7539 h -3.10546 v 3.21875 h -3.21485 v 3.32422 h -6.42187 v -3.27734 h -6.36719 v -9.58594 h 6.32812 v 3.09766 h 3.17579 v -6.46485 h -6.33594 v -3.20312 h -6.55469 v 3.14062 h -3.21875 v 3.34766 h -3.17969 v 3.21484 H 236.5 Z m 0,0"
       id="path2199" />
    <path
       style="fill:#f8971e;fill-opacity:1;fill-rule:nonzero;stroke:none"
       d="m 127.5,139.78125 v 6.32812 h 3.15625 v -3.1914 h 3.15625 v -3.13672 z m -12.88672,9.74609 h 3.19922 v -9.75781 H 121 v -3.21484 h 3.21484 v -3.16016 h 12.78907 v 16.08984 h -3.11719 v 3.21485 h -9.60547 v 3.18359 H 137 v 3.21094 h -3.11328 v 3.33984 h -16.02734 v -6.47265 h -3.22266 v -6.45703 z m 0,0"
       id="path2201" />
    <path
       style="fill:#f8971e;fill-opacity:1;fill-rule:nonzero;stroke:none"
       d="m 114.63672,149.50391 h -3.16406 v 9.58984 h 3.08984 v 3.33984 h -9.52344 v -3.27343 h -3.17968 v -3.21485 h 3.11328 v -9.77734 h 3.19922 v -6.38672 h -6.3125 v -6.41797 h 3.11718 v -3.33594 h 3.21485 v 6.47657 h 6.42187 v 13.02343 z m 0,0"
       id="path2203" />
  </g>
</svg>
