<svg width="501" height="129" viewBox="0 0 501 129" fill="none" xmlns="http://www.w3.org/2000/svg">
<g clip-path="url(#clip0_85_188)">
<path d="M15.1201 69.1752C15.1201 86.7931 15.1201 104.411 15.1201 122.029C22.0088 122.029 28.8975 122.029 35.7861 122.029C35.7861 116.331 35.7861 110.633 35.7861 104.935C47.111 104.935 58.4359 104.935 69.7607 104.935C69.7607 92.3484 69.7607 79.7618 69.7607 67.1753C51.5472 67.1753 33.3337 67.1753 15.1201 67.1753C15.1201 67.8419 15.1201 68.5086 15.1201 69.1752ZM42.4404 79.5073C44.6585 79.5073 46.8766 79.5073 49.0947 79.5073C49.0947 83.8719 49.0947 88.2364 49.0947 92.601C44.6585 92.601 40.2223 92.601 35.7861 92.601C35.7861 88.2364 35.7861 83.8719 35.7861 79.5073C38.0042 79.5073 40.2223 79.5073 42.4404 79.5073Z" fill="#FF0000"/>
<path d="M100.163 69.2807C100.163 72.6538 100.163 76.0268 100.163 79.3998C105.718 79.3998 111.274 79.3998 116.829 79.3998C116.829 89.463 116.829 99.5262 116.829 109.589C111.274 109.589 105.718 109.589 100.163 109.589C100.163 113.629 100.163 117.669 100.163 121.708C118.305 121.708 136.447 121.708 154.589 121.708C154.589 117.669 154.589 113.629 154.589 109.589C148.891 109.589 143.193 109.589 137.495 109.589C137.495 99.5262 137.495 89.463 137.495 79.3998C143.193 79.3998 148.891 79.3998 154.589 79.3998C154.589 75.3601 154.589 71.3204 154.589 67.2807C136.447 67.2807 118.305 67.2807 100.163 67.2807C100.163 67.9474 100.163 68.614 100.163 69.2807Z" fill="#FF6600"/>
<path d="M184.778 69.2807C184.778 75.5034 184.778 81.726 184.778 87.9487C187.627 87.9487 190.476 87.9487 193.325 87.9487C193.325 89.6062 193.325 91.2638 193.325 92.9213C190.476 92.9213 187.627 92.9213 184.778 92.9213C184.778 102.517 184.778 112.113 184.778 121.708C191.667 121.708 198.556 121.708 205.444 121.708C205.444 113.304 205.444 104.9 205.444 96.4955C209.951 96.4955 214.459 96.4955 218.966 96.4955C218.966 104.9 218.966 113.304 218.966 121.708C225.712 121.708 232.458 121.708 239.204 121.708C239.204 112.113 239.204 102.517 239.204 92.9213C236.498 92.9213 233.791 92.9213 231.085 92.9213C231.085 91.2638 231.085 89.6062 231.085 87.9487C233.791 87.9487 236.498 87.9487 239.204 87.9487C239.204 81.0593 239.204 74.17 239.204 67.2807C232.458 67.2807 225.712 67.2807 218.966 67.2807C218.966 72.9786 218.966 78.6765 218.966 84.3744C214.459 84.3744 209.951 84.3744 205.444 84.3744C205.444 78.6765 205.444 72.9786 205.444 67.2807C198.556 67.2807 191.667 67.2807 184.778 67.2807C184.778 67.9474 184.778 68.614 184.778 69.2807Z" fill="#FFCC00"/>
<path d="M269.821 69.2807C269.821 86.7566 269.821 104.233 269.821 121.708C287.963 121.708 306.105 121.708 324.247 121.708C324.247 117.669 324.247 113.629 324.247 109.589C312.994 109.589 301.741 109.589 290.487 109.589C290.487 105.225 290.487 100.86 290.487 96.4955C301.741 96.4955 312.994 96.4955 324.247 96.4955C324.247 92.4552 324.247 88.4148 324.247 84.3744C312.994 84.3744 301.741 84.3744 290.487 84.3744C290.487 82.7162 290.487 81.058 290.487 79.3998C301.741 79.3998 312.994 79.3998 324.247 79.3998C324.247 75.3601 324.247 71.3204 324.247 67.2807C306.105 67.2807 287.963 67.2807 269.821 67.2807C269.821 67.9474 269.821 68.614 269.821 69.2807Z" fill="#55D400"/>
<path d="M354.437 69.2807C354.437 86.7566 354.437 104.233 354.437 121.708C372.578 121.708 390.72 121.708 408.862 121.708C408.862 117.669 408.862 113.629 408.862 109.589C397.609 109.589 386.356 109.589 375.103 109.589C375.103 95.4864 375.103 81.3836 375.103 67.2807C368.214 67.2807 361.325 67.2807 354.437 67.2807C354.437 67.9474 354.437 68.614 354.437 69.2807Z" fill="#00AAD4"/>
<path d="M439.479 69.2807C439.479 81.2013 439.479 93.1218 439.479 105.042C450.733 105.042 461.986 105.042 473.239 105.042C473.239 106.558 473.239 108.074 473.239 109.589C461.986 109.589 450.733 109.589 439.479 109.589C439.479 113.629 439.479 117.669 439.479 121.708C457.621 121.708 475.763 121.708 493.905 121.708C493.905 109.264 493.905 96.8191 493.905 84.3744C482.652 84.3744 471.399 84.3744 460.146 84.3744C460.146 82.7162 460.146 81.058 460.146 79.3998C471.399 79.3998 482.652 79.3998 493.905 79.3998C493.905 75.3601 493.905 71.3204 493.905 67.2807C475.763 67.2807 457.621 67.2807 439.479 67.2807C439.479 67.9474 439.479 68.614 439.479 69.2807Z" fill="#9955FF"/>
<path d="M0 52.1738V60.6582V69.1425V77.6289V86.1132V94.5976V103.082V111.566V120.051H8.48437V128.535H16.9687H25.4531H33.9375H42.4219V120.051V111.566H50.9082H59.3926H67.877H76.3613V103.082V94.5976V86.1132V77.6289V69.1425V60.6582H67.877V52.1738H59.3926H50.9082H42.4219H33.9375H25.4531H16.9687H8.48437H0ZM84.8457 52.1738V60.6582V69.1425V77.6289H93.3301V86.1132H101.814H110.299V94.5976H101.814H93.3301H84.8457V103.082V111.566V120.051H93.3301V128.535H101.814H110.299H118.783H127.268H135.754H144.238H152.723H161.207V120.051V111.566V103.082H152.723V94.5976H144.238V86.1132H152.723H161.207V77.6289V69.1425V60.6582H152.723V52.1738H144.238H135.754H127.268H118.783H110.299H101.814H93.3301H84.8457ZM169.691 52.1738V60.6582V69.1425V77.6289V86.1132V94.5976V103.082V111.566V120.051H178.176V128.535H186.66H195.145H203.629H212.113H220.6H229.084H237.568H246.053V120.051V111.566V103.082V94.5976V86.1132V77.6289V69.1425V60.6582H237.568V52.1738H229.084H220.6H212.113H203.629H195.145H186.66H178.176H169.691ZM254.537 52.1738V60.6582V69.1425V77.6289V86.1132V94.5976V103.082V111.566V120.051H263.021V128.535H271.506H279.99H288.475H296.959H305.445H313.93H322.414H330.898V120.051V111.566V103.082V94.5976V86.1132V77.6289V69.1425V60.6582H322.414V52.1738H313.93H305.445H296.959H288.475H279.99H271.506H263.021H254.537ZM339.383 52.1738V60.6582V69.1425V77.6289V86.1132V94.5976V103.082V111.566V120.051H347.867V128.535H356.352H364.836H373.32H381.805H390.291H398.775H407.26H415.744V120.051V111.566V103.082H407.26V94.5976H398.775H390.291H381.805V86.1132V77.6289V69.1425V60.6582H373.32V52.1738H364.836H356.352H347.867H339.383ZM424.229 52.1738V60.6582V69.1425V77.6289V86.1132V94.5976V103.082V111.566V120.051H432.713V128.535H441.197H449.682H458.166H466.65H475.135H483.621H492.105H500.59V120.051V111.566V103.082V94.5976V86.1132V77.6289V69.1425V60.6582H492.105V52.1738H483.621H475.135H466.65H458.166H449.682H441.197H432.713H424.229ZM16.9687 69.1425H25.4531H33.9375H42.4219H50.9082H59.3926H67.877V77.6289V86.1132V94.5976V103.082H59.3926H50.9082H42.4219H33.9375V111.566V120.051H25.4531H16.9687V111.566V103.082V94.5976V86.1132V77.6289V69.1425ZM101.814 69.1425H110.299H118.783H127.268H135.754H144.238H152.723V77.6289H144.238H135.754V86.1132V94.5976V103.082V111.566H144.238H152.723V120.051H144.238H135.754H127.268H118.783H110.299H101.814V111.566H110.299H118.783V103.082V94.5976V86.1132V77.6289H110.299H101.814V69.1425ZM186.66 69.1425H195.145H203.629V77.6289V86.1132H212.113H220.6V77.6289V69.1425H229.084H237.568V77.6289V86.1132H229.084V94.5976H237.568V103.082V111.566V120.051H229.084H220.6V111.566V103.082V94.5976H212.113H203.629V103.082V111.566V120.051H195.145H186.66V111.566V103.082V94.5976H195.145V86.1132H186.66V77.6289V69.1425ZM271.506 69.1425H279.99H288.475H296.959H305.445H313.93H322.414V77.6289H313.93H305.445H296.959H288.475V86.1132H296.959H305.445H313.93H322.414V94.5976H313.93H305.445H296.959H288.475V103.082V111.566H296.959H305.445H313.93H322.414V120.051H313.93H305.445H296.959H288.475H279.99H271.506V111.566V103.082V94.5976V86.1132V77.6289V69.1425ZM356.352 69.1425H364.836H373.32V77.6289V86.1132V94.5976V103.082V111.566H381.805H390.291H398.775H407.26V120.051H398.775H390.291H381.805H373.32H364.836H356.352V111.566V103.082V94.5976V86.1132V77.6289V69.1425ZM441.197 69.1425H449.682H458.166H466.65H475.135H483.621H492.105V77.6289H483.621H475.135H466.65H458.166V86.1132H466.65H475.135H483.621H492.105V94.5976V103.082V111.566V120.051H483.621H475.135H466.65H458.166H449.682H441.197V111.566H449.682H458.166H466.65H475.135V103.082H466.65H458.166H449.682H441.197V94.5976V86.1132V77.6289V69.1425ZM33.9375 77.6289V86.1132V94.5976H42.4219H50.9082V86.1132V77.6289H42.4219H33.9375Z" fill="black"/>
<path d="M0 0V42.1738H16.8691V37.957H21.0879V33.7402H25.3047V29.5214H29.5215V33.7402H33.7402V37.957H37.957V42.1738H54.8262V0H37.957V21.0879H33.7402V16.8691H29.5215V12.6523H25.3047V16.8691H21.0879V21.0879H16.8691V0H0ZM67.5449 0V8.43554H80.1973V33.7402H67.5449V42.1738H109.719V33.7402H97.0664V8.43554H109.719V0H67.5449ZM122.436 0V8.43554H135.088V42.1738H151.959V8.43554H164.611V0H122.436ZM177.328 0V8.43554H189.98V42.1738H206.85V8.43554H219.502V0H177.328ZM232.219 0V16.8691H236.438V21.0879H240.654V25.3047H249.09V42.1738H265.959V25.3047H274.395V21.0879H278.611V16.8691H282.828V0H265.959V12.6523H261.742V16.8691H253.307V12.6523H249.09V0H232.219Z" fill="black"/>
</g>
<defs>
<clipPath id="clip0_85_188">
<rect width="500.589" height="128.535" fill="white"/>
</clipPath>
</defs>
</svg>
