<svg width="85" height="60" viewBox="0 0 85 60" fill="none" xmlns="http://www.w3.org/2000/svg">
<path d="M21.4195 49.9064C21.5915 49.1636 21.7617 48.3747 21.5206 47.6514C21.2813 46.9281 20.4605 46.3413 19.7567 46.6356C19.528 46.7313 19.3401 46.9068 19.1167 47.0185C18.8065 47.1781 18.3509 47.1887 18.2605 46.6923C18.2303 46.5257 18.2623 46.3555 18.3314 46.2013C18.6327 45.5365 18.4909 44.9107 18.124 44.3647C17.9484 44.1005 17.6134 43.996 17.3173 44.1076C16.9256 44.2566 16.5816 44.5561 16.3405 44.9089C15.9984 45.4106 15.8318 46.0098 15.6899 46.6019C15.596 46.9955 15.5091 47.4103 15.6527 47.795C15.7343 48.0113 15.8938 48.1939 16.1066 48.2807C16.5586 48.4669 16.8334 48.0786 17.2057 47.9918C17.6808 47.8801 18.1435 48.3162 18.2463 48.7931C18.3509 49.2699 18.1967 49.7592 18.046 50.2237C17.617 51.5409 17.1862 52.858 16.7554 54.177C16.5125 54.9215 16.2697 55.7264 16.5054 56.4709C16.8245 57.4761 17.9857 58.0487 19.0316 57.9246C20.0776 57.8005 20.9852 57.1109 21.6323 56.2795C21.1855 56.4089 20.5083 56.2936 20.324 55.893C20.1396 55.4941 20.2353 55.0261 20.3346 54.5971C20.6962 53.0335 21.0579 51.4699 21.4195 49.9064" fill="#F8971E"/>
<path d="M27.5533 50.9683C27.4044 51.1579 27.2395 51.3441 27.0215 51.4487C26.8034 51.5533 26.5216 51.5568 26.3408 51.3973C26.1298 51.2147 26.1209 50.8973 26.1351 50.6208C26.1776 49.7894 28.0107 46.8324 28.9591 47.8287C29.6239 48.5272 28.1064 50.268 27.5533 50.9683ZM29.5388 44.8043C28.6755 44.4622 27.6969 44.4817 26.8212 44.7937C24.6513 45.5684 23.437 47.6248 22.6782 49.6972C21.9514 51.6809 21.572 53.9749 22.5506 55.8487C23.5114 57.6853 25.7823 58.7277 27.8015 58.2597C29.319 57.9087 30.5901 56.7245 31.1485 55.2779C31.3559 54.7407 30.7975 54.2178 30.2798 54.4713C29.7569 54.7283 29.2038 54.9464 28.7393 55.0793C28.2447 55.2176 27.7271 55.308 27.22 55.2318C26.7113 55.1556 26.2149 54.8932 25.9472 54.4553C25.6795 54.0174 25.6919 53.4821 26.0482 53.1133C27.1633 53.7001 28.5993 53.4466 29.6026 52.6861C30.606 51.9238 31.2159 50.7307 31.4977 49.504C31.9072 47.733 31.6378 45.634 29.5388 44.8044" fill="#F8971E"/>
<path d="M39.3883 49.5057C39.2748 51.1172 38.6827 52.6949 37.6864 53.966C37.4684 54.2426 37.1263 54.5315 36.8072 54.3844C36.5483 54.2656 36.4845 53.9341 36.4668 53.6505C36.3551 51.899 36.7433 50.1209 37.5712 48.575C37.8247 48.1017 38.493 47.1568 39.1295 47.6284C39.5673 47.9528 39.4184 49.0572 39.3883 49.5057V49.5057ZM43.4994 54.083C43.1767 53.982 42.8594 53.7072 42.7282 53.4147C42.5119 52.9289 42.6112 52.367 42.714 51.844C43.1679 49.5554 43.6199 47.265 44.0737 44.9763C43.6252 44.4427 43.0065 43.941 42.3134 44.0137C41.622 44.0846 40.6612 44.9125 40.3332 45.5259C39.8014 44.2566 38.0375 43.8932 36.7877 44.4711C35.5379 45.0472 34.7242 46.274 34.1019 47.5025C33.1163 49.449 32.4444 51.555 32.12 53.7143C31.9781 54.6627 31.9214 55.7033 32.4497 56.5046C33.095 57.485 34.4565 57.781 35.5999 57.5151C36.7451 57.2492 37.7272 56.5383 38.6739 55.8416C38.8724 56.5826 39.4096 57.1605 40.1222 57.4424C40.8367 57.7225 41.6805 57.6445 42.3311 57.2385C43.1874 56.7032 43.6075 55.7352 43.8965 54.7425C43.9816 54.45 43.7883 54.1734 43.4994 54.083" fill="#F8971E"/>
<path d="M61.5355 52.9467C61.422 52.9555 61.2944 53.1009 61.1526 53.3845C60.8548 53.982 60.5676 54.2904 60.2928 54.3099C59.7734 54.3471 59.4755 53.8082 59.394 52.6896C59.3373 51.9007 59.3904 50.6633 59.5518 48.9792C59.7149 47.2951 60.5871 46.1463 60.5516 45.6553C60.5002 44.9479 60.1988 44.6129 59.6493 44.6536C58.9207 44.7051 58.2967 44.8947 57.7755 45.2192C57.2543 45.5453 57.0096 45.9265 57.0398 46.3626C57.0522 46.5257 57.0947 46.7225 57.1674 46.9494C57.2419 47.1763 57.2862 47.4138 57.3039 47.6585C57.4386 49.5128 55.212 52.8864 54.5969 52.9307C54.2086 52.9591 53.9888 52.6329 53.9392 51.9504C53.863 50.8867 55.2244 46.5629 55.1872 46.0435C55.1358 45.3362 54.8344 45.0011 54.2849 45.0401C53.5563 45.0933 52.9323 45.283 52.4093 45.6074C51.8881 45.9336 51.6434 46.3147 51.6754 46.7508C51.6878 46.9139 51.7285 47.1107 51.803 47.3376C51.8757 47.5645 51.9218 47.8003 51.9395 48.0467C51.9696 48.4562 51.0992 49.5642 50.945 51.2466C50.789 52.9289 50.7447 54.2337 50.812 55.1608C50.8759 56.033 51.0992 56.7634 51.4839 57.352C51.8686 57.9405 52.3596 58.2135 52.9571 58.171C53.847 58.1072 54.6997 57.6338 55.5152 56.7528C55.8307 56.4018 56.141 55.9533 56.4423 55.4108C56.5257 55.8717 56.6693 56.2865 56.8749 56.6535C57.3216 57.4442 57.951 57.8094 58.7593 57.7509C59.9737 57.664 60.9274 56.6907 61.6224 54.8311C61.8439 54.294 61.9432 53.849 61.9166 53.4944C61.8901 53.1133 61.7624 52.9307 61.5355 52.9467" fill="#F8971E"/>
<path d="M66.8875 46.258C66.4372 46.0967 65.9727 46.1127 65.5242 46.1286C65.37 46.1339 65.214 46.1392 65.0615 46.1357C64.5793 46.1251 64.1468 45.9549 64.0989 45.7563C64.0688 45.6305 64.1982 45.4248 64.4286 45.2298C64.5173 45.1536 64.613 45.0827 64.707 45.0118C64.9392 44.838 65.1785 44.659 65.3647 44.4143C65.8398 43.7921 65.8238 43.0103 65.3221 42.4714C64.7407 41.8438 63.6345 41.9431 63.0016 42.4217C62.4857 42.8171 62.1879 43.4269 62.1187 44.2335C62.0992 44.4516 62.0957 44.6696 62.0922 44.8894C62.0885 45.228 62.0833 45.5471 62.0159 45.8521C61.9787 46.0187 61.9255 46.1906 61.8723 46.3626C61.6756 46.9919 61.4327 47.7755 61.9734 48.4208C62.2393 48.7381 62.6098 48.9048 62.9679 49.0661C63.2338 49.1831 63.4838 49.2965 63.6416 49.4508C63.9039 49.7078 63.9465 50.1404 63.7745 50.7396C63.6327 51.2253 63.4217 51.6951 63.1984 52.1932C63.0884 52.4414 62.9785 52.6878 62.8757 52.9378C62.5974 53.6185 62.2925 54.5209 62.4183 55.4604C62.5513 56.4514 63.1913 57.3041 64.0865 57.6835C64.3985 57.8165 64.7655 57.8856 65.1378 57.8856C65.8788 57.8856 66.6464 57.6126 67.0577 57.0223L67.1906 56.8326L67.0949 56.6216C66.6021 55.5402 66.4567 54.3294 66.6872 53.2126C66.8786 52.2854 67.2225 51.3529 67.5558 50.4524L67.8253 49.7149C68.038 49.121 68.2224 48.536 68.1568 47.9138C68.0752 47.155 67.5771 46.5044 66.8875 46.258" fill="#F8971E"/>
<path d="M72.7146 50.4684C72.5816 50.5854 72.36 50.6208 72.2306 50.5003C72.1278 50.4028 72.1154 50.245 72.1136 50.1032C72.103 49.4508 72.3228 45.6411 73.2375 45.6659C74.1593 45.6908 73.1489 49.4862 72.9716 50.011C72.9131 50.1776 72.8475 50.3514 72.7146 50.4684V50.4684ZM73.2712 52.4202C74.2764 51.6685 75.1964 50.7786 75.7974 49.6795C76.6678 48.0858 76.8008 45.9974 75.4588 44.5526C75.0262 44.0882 74.4536 43.7531 73.8296 43.6397C71.8672 43.2798 70.4879 44.8948 69.7008 46.5115C68.7985 48.3676 68.334 50.4364 68.3606 52.5017C68.3713 53.3686 68.4705 54.2497 68.8127 55.0474C69.1531 55.8434 69.7611 56.556 70.5659 56.8787C71.6332 57.3077 72.8918 56.9886 73.8314 56.322C74.5529 55.8097 75.1184 55.1183 75.6201 54.3809C75.7513 54.1894 75.5563 53.9394 75.3365 54.0192C75.0227 54.1344 74.6947 54.2302 74.4288 54.2674C73.9608 54.333 73.4396 54.2266 73.1134 53.8863C72.7092 53.4679 72.805 52.7694 73.2712 52.4202" fill="#F8971E"/>
<path d="M80.9579 46.2297C80.8569 46.1729 80.7576 46.1162 80.6601 46.0577C80.7647 45.9035 80.8994 45.7687 81.0679 45.6641C81.3054 45.5152 81.6103 45.439 81.8709 45.5312C82.1297 45.6234 82.2999 45.923 82.1776 46.1658C81.9791 46.5629 81.3497 46.4442 80.9579 46.2297V46.2297ZM81.972 49.2274C81.6919 49.0395 81.4171 48.8338 81.1778 48.6016C81.1937 48.6034 81.2097 48.6052 81.2256 48.6069C83.6189 48.7948 86.161 46.1605 84.2163 43.7779C83.9256 43.4234 83.5462 43.1255 83.103 42.9553C81.7965 42.459 80.4793 42.9997 79.4192 43.7407C77.5205 45.0685 77.283 46.4885 77.2724 46.5257C76.9533 47.6443 77.2245 48.9243 78.1268 49.6688C78.6835 50.128 79.4174 50.3496 80.0751 50.6757C80.7346 51.0019 81.371 51.5089 81.4685 52.2074C81.5412 52.7197 81.2682 53.2853 80.7771 53.5405C80.2861 53.794 79.6071 53.6788 79.3093 53.2534C79.0948 52.9449 79.132 52.5052 79.3607 52.2003C79.5131 51.9947 79.4458 51.7164 79.2029 51.6348C78.3413 51.3388 77.15 51.7181 76.682 52.5035C76.1112 53.4554 76.3647 54.6716 77.0206 55.5314C77.9017 56.6854 79.4848 57.3272 81.0182 57.1322C82.5499 56.9389 83.9681 55.9072 84.5443 54.5475C85.1204 53.1877 84.819 51.5586 83.7837 50.5251C83.2625 50.0056 82.5907 49.644 81.972 49.2274" fill="#F8971E"/>
<path d="M13.6087 49.7663C13.3215 50.1404 12.9865 50.4736 12.6497 50.8087C11.0754 52.3723 8.00854 51.828 6.85448 49.9915C6.45206 49.3515 6.3386 48.5732 6.17196 47.834C5.76954 46.0258 5.87059 43.6095 6.79066 42.0016C6.71088 43.4109 7.99614 44.6359 9.38953 44.8522C10.7829 45.0685 12.1941 44.4764 13.3269 43.6361C14.7114 42.6079 15.8229 41.1453 16.1952 39.4612C16.5692 37.7771 16.126 35.8767 14.8674 34.696C13.3499 33.2707 10.9726 33.1271 8.99066 33.7653C5.73054 34.8148 3.28412 37.6849 2.06269 40.883C0.839477 44.0828 0.699428 47.5947 0.883796 51.0143C0.965339 52.5496 1.11602 54.1025 1.66381 55.5384C2.21337 56.9744 3.2079 58.2969 4.60129 58.9457C6.37051 59.7683 9.89655 59.4474 11.4885 58.3181C13.0804 57.1889 14.1406 55.4356 14.7894 53.5955C15.1688 52.5194 15.3992 51.3015 15.2361 50.1918C15.1227 49.4082 14.0891 49.1388 13.6087 49.7663" fill="#F8971E"/>
<path d="M50.2713 54.4996C49.6792 54.3702 49.0978 53.9305 48.94 53.3774C48.7432 52.6914 48.8638 51.9592 48.9914 51.2572C49.9044 46.2403 52.31 36.1798 52.6575 35.0807C52.8099 34.6038 52.4377 34.1216 51.9377 34.1535C50.2643 34.2635 48.7911 34.3946 47.1105 34.9779C46.8375 36.3801 44.8343 50.4701 44.3095 53.4501C44.15 54.3489 43.9957 55.2654 44.1163 56.1713C44.2351 57.0754 44.6694 57.9831 45.4494 58.4582C46.5379 59.1176 48.0252 58.7454 48.9577 57.8785C49.7803 57.1162 50.2501 56.0561 50.5709 54.9729C50.633 54.7584 50.4894 54.5475 50.2713 54.4996" fill="#F8971E"/>
<path d="M44.6623 22.2689C46.5822 22.2353 47.8604 20.053 46.6212 18.4469C45.515 17.0145 43.159 18.3866 42.7211 19.7871C42.5119 20.4536 42.6555 21.2461 43.159 21.7336C43.5508 22.1147 44.1163 22.2796 44.6623 22.2689Z" fill="#F8971E"/>
<path d="M42.1113 22.3026C40.865 24.5487 40.5778 25.506 40.608 28.2662C40.6186 29.2714 40.8402 30.3262 41.9251 30.9076C42.7796 31.3668 43.8202 31.3171 44.6818 30.8704C45.6692 30.3599 46.5131 29.9362 46.7506 28.5445C46.7985 28.2644 46.5006 28.0482 46.2436 28.1687C45.9865 28.2893 45.71 28.3619 45.5717 28.3229C45.2792 28.2378 45.0807 27.9542 45.0097 27.6564C44.9406 27.3603 44.9761 27.0501 45.0134 26.7487C45.2279 24.9689 45.4796 25.0167 45.8838 23.2599C45.9547 22.9461 45.6622 22.6749 45.352 22.7618C44.4372 23.0188 43.4853 22.8327 42.7691 22.2069C42.5634 22.0261 42.2426 22.0633 42.1114 22.3026" fill="#F8971E"/>
<path d="M46.4723 39.0836C45.7207 39.2822 44.9318 39.4346 44.173 39.2733C43.4143 39.112 42.4499 38.5748 42.5368 37.8001C43.0225 33.4037 53.356 32.1468 60.5605 33.3735C51.5336 38.0466 48.823 38.4667 46.4723 39.0836V39.0836ZM77.3043 23.6889C76.1325 23.0968 74.5848 23.3273 73.6648 24.2367C73.4716 24.4264 73.4928 24.749 73.7251 24.8891C74.3083 25.2365 74.6753 25.9527 74.6575 26.6512C74.6345 27.5092 74.1221 28.3016 73.4449 28.8264C72.7695 29.3529 71.9417 29.6454 71.1155 29.8635C69.7877 30.2092 68.4387 30.3793 67.0754 30.4432C67.7969 29.2643 68.4458 28.0393 69.029 26.7895C69.9597 24.7933 70.7344 22.7263 71.4417 20.638C71.7183 19.8207 71.9877 18.9875 72.0374 18.1242C72.087 17.2626 71.8956 16.3532 71.3389 15.6937C70.7823 15.0343 69.8196 14.6886 69.0201 15.0112C68.389 15.2665 67.4512 16.0713 67.3094 16.7609C67.2598 17.0073 67.4175 17.2307 67.6391 17.3477C67.7969 17.431 67.9263 17.5729 68.0114 17.7342C68.1373 17.9735 68.1745 18.2501 68.1993 18.5195C68.4351 21.1485 68.3536 23.4212 66.4904 25.2844C66.2918 25.4847 66.0188 25.6904 65.7529 25.5929C65.4303 25.4741 65.409 25.0274 65.4657 24.687C65.7228 23.1606 66.3947 21.714 66.5205 20.17C66.5861 19.3492 66.4549 18.4362 65.8451 17.8866C65.3168 17.4115 64.2053 17.8051 63.5423 18.0568C63.2037 18.1862 62.936 18.4061 62.7144 18.6755C62.452 18.9946 62.4999 19.4396 62.7747 19.748C62.7995 19.7764 62.8225 19.8048 62.842 19.8367C62.9821 20.0565 63.0122 20.326 63.0211 20.5866C63.0707 22.2991 62.2748 23.9141 61.9982 25.6035C61.9202 26.0822 61.8847 26.5838 62.0389 27.0448C62.2942 27.8053 63.0672 28.3336 63.8667 28.3867C64.6644 28.4399 65.4586 28.0606 66.0011 27.4684C65.3647 28.5179 64.629 29.5089 63.8082 30.429C62.0212 30.3492 60.2236 30.2216 58.4473 30.0851C44.0737 28.9895 36.2771 34.5861 36.0378 40.009C35.974 41.4662 37.2628 42.6983 38.548 43.3719C39.835 44.0474 41.3295 44.2193 42.7814 44.1768C46.9633 44.0527 58.52 39.642 61.6986 36.9084C62.6736 36.0699 63.5724 35.1516 64.402 34.1713C66.2794 34.5258 68.1727 34.7758 70.0767 34.6907C72.8865 34.5666 75.7708 33.627 77.6836 31.5582C78.7171 30.4432 79.4387 28.9824 79.4458 27.4578C79.4546 25.935 78.6604 24.375 77.3042 23.6889" fill="#F8971E"/>
<path d="M32.2884 14.2844C32.2015 15.1176 31.7282 15.8941 31.3098 16.5783L30.9446 17.1758C30.9216 16.9843 30.8985 16.7928 30.8773 16.6014C30.7851 15.7398 30.7195 14.7524 31.1166 13.9263C31.2637 13.6196 31.5367 13.3395 31.8044 13.3395C31.8346 13.3395 31.8647 13.3431 31.8948 13.3519C32.2051 13.4299 32.3291 13.8908 32.2884 14.2844V14.2844ZM80.8498 2.43696C80.3268 1.38216 79.3678 0.520599 78.2243 0.244045C77.2387 0.00472321 76.1342 0.242227 75.372 0.894651C75.1947 1.04534 75.2337 1.32012 75.4269 1.4513C76.4108 2.11609 76.7423 3.68322 76.3292 4.83019C75.8665 6.12254 74.3491 7.26952 73.3847 7.52303C71.5304 8.01231 68.834 8.35623 65.7866 8.60087C65.3239 8.59202 64.824 8.58135 64.2975 8.56896C63.5813 8.55299 62.8243 8.53706 62.0567 8.52287C62.881 4.83906 63.5884 1.79699 63.7426 1.31302C63.8933 0.83615 63.5228 0.353958 63.0229 0.385867C61.3494 0.495779 59.8744 0.626968 58.1956 1.21021C58.091 1.74736 57.6124 4.77347 57.0327 8.46969C56.4565 8.4715 55.9123 8.47854 55.407 8.49097C56.2278 4.82134 56.9334 1.79523 57.0859 1.31304C57.2365 0.836164 56.866 0.353972 56.3661 0.38588C54.6926 0.495793 53.2194 0.626975 51.5389 1.21022C51.4289 1.77041 50.9148 5.0323 50.3032 8.93594C34.086 11.4426 34.4228 23.345 34.5948 29.2873C34.6071 29.7234 34.6178 30.1311 34.6231 30.507C33.6197 27.7574 32.6234 24.9298 31.8877 22.0473C32.3753 21.3045 32.9869 20.3366 33.5205 19.3013C34.9599 16.511 35.4457 13.8217 34.9227 11.5242C34.6887 10.4995 34.2562 9.7975 33.6339 9.43586C32.9603 9.04408 32.0491 9.06889 31.2566 9.49968C30.6557 9.82587 30.1309 10.3524 29.6062 11.1572C27.7749 13.96 27.5888 17.291 27.7536 19.592C27.8068 20.3366 27.9043 21.1095 28.0497 21.9481C27.2466 23.3078 26.3957 25.646 25.5731 27.9081C24.9739 29.5568 24.3606 31.2427 23.7614 32.5705C24.7807 27.0518 25.3072 18.4965 24.9013 13.1658C24.7488 11.1484 24.4457 9.05471 23.2703 7.4149C21.7333 5.26631 18.6806 4.23278 16.0126 4.9543C13.4758 5.64213 11.336 7.81023 10.5613 10.48C10.2351 11.6057 10.1731 12.719 10.3823 13.6976C10.6252 14.8304 11.2527 15.8302 12.1036 16.4383C13.0131 17.0907 14.2469 17.3796 15.768 17.2945C17.0195 17.2272 17.9644 16.924 18.6522 16.3692C19.4695 15.7132 20.0581 14.5166 19.6007 13.5026L19.5563 13.4051L19.4535 13.3767C19.2745 13.3271 19.1256 13.1764 19.0493 12.9637C18.9589 12.7155 18.9873 12.4318 19.1202 12.2386C19.3826 11.8592 19.9907 11.7227 20.4746 11.9319C20.9231 12.1269 21.2866 12.5701 21.4745 13.1498C21.6517 13.7011 21.6642 14.3057 21.6606 14.8783C21.6269 20.2356 20.0829 29.6419 18.6611 35.0648L18.092 37.2417C17.7552 38.527 18.1169 39.853 19.0582 40.789C19.7638 41.4893 20.6856 41.8633 21.6411 41.8633C21.9638 41.8633 22.2917 41.8208 22.6144 41.7339L22.6941 41.7126C23.9865 41.3652 24.9881 40.3458 25.3072 39.0517C25.4153 38.6121 25.5377 38.0997 25.6706 37.536C26.44 34.3078 27.6933 29.0356 29.0814 26.3817C29.1966 26.8036 29.3154 27.2273 29.4324 27.6493L29.5512 28.0747C29.9909 29.6596 30.4447 31.349 30.7443 33.0261C31.0811 34.9265 32.7918 36.2401 34.7365 36.0841C34.8784 36.0717 35.022 36.0628 35.1656 36.054C37.0146 35.9494 38.4984 34.4673 38.6171 32.6095C38.6384 32.2975 38.6295 31.8277 38.6208 31.232C38.5623 27.8177 38.4435 20.7142 42.7566 16.3266C44.5064 14.5467 46.8269 13.4157 49.6757 12.9388C48.9188 17.7732 48.1671 22.5614 47.9207 23.9601C47.7629 24.8589 47.6087 25.7754 47.7275 26.6813C47.8462 27.5872 48.2823 28.4949 49.0624 28.9682C50.1491 29.6294 51.6364 29.2554 52.5707 28.3903C53.3932 27.6262 53.863 26.5679 54.1821 25.4829C54.2459 25.2684 54.1023 25.0575 53.8843 25.0096C53.2904 24.8802 52.709 24.4406 52.5512 23.8875C52.3544 23.2014 52.4767 22.4692 52.6044 21.7672C52.9713 19.7463 53.7141 16.2078 54.4924 12.6339C55.0295 12.6162 55.6766 12.5967 56.3892 12.5772C55.6127 17.5321 54.8292 22.5277 54.5774 23.9601C54.4179 24.8589 54.2637 25.7754 54.3842 26.6813C54.503 27.5872 54.9373 28.4949 55.7173 28.9682C56.8058 29.6294 58.2932 29.2554 59.2274 28.3903C60.05 27.6262 60.518 26.5679 60.8389 25.4829C60.9009 25.2684 60.7591 25.0575 60.5393 25.0096C59.9472 24.8802 59.3657 24.4406 59.2079 23.8875C59.0111 23.2014 59.1335 22.4692 59.2593 21.7672C59.6316 19.7197 60.3904 16.1174 61.1792 12.4956C66.6908 12.563 73.617 12.8023 77.338 11.2015C78.8608 10.5456 80.9332 8.15237 81.2984 5.885C81.4845 4.72206 81.3728 3.49176 80.8499 2.43697" fill="#F8971E"/>
</svg>
