
<svg width="128" height="66" viewBox="0 0 128 66" fill="none" xmlns="http://www.w3.org/2000/svg">
<path d="M31.9473 15.6316H28.4736V29.5263H31.9473V15.6316Z" fill="black"/>
<path d="M37.1579 29.5263H31.9474V33H37.1579V29.5263Z" fill="black"/>
<path d="M40.6315 15.6316H37.1578V29.5263H40.6315V15.6316Z" fill="black"/>
<path d="M49.3157 15.6316H45.842V29.5263H49.3157V15.6316Z" fill="black"/>
<path d="M45.8421 29.5263H40.6316V33H45.8421V29.5263Z" fill="black"/>
<path d="M58 15.6316H52.7894V19.1053H58V15.6316Z" fill="black"/>
<path d="M58 29.5263H51.0526V33H58V29.5263Z" fill="black"/>
<path d="M61.4737 19.1053H58V29.5263H61.4737V19.1053Z" fill="black"/>
<path d="M61.4737 10.4211H58V13.8948H61.4737V10.4211Z" fill="#8C52FF"/>
<path d="M68.421 29.5263H61.4736V33H68.421V29.5263Z" fill="black"/>
<path d="M73.6315 19.1053H70.1578V29.5263H73.6315V19.1053Z" fill="black"/>
<path d="M73.6315 10.4211H70.1578V15.6316H73.6315V10.4211Z" fill="black"/>
<path d="M82.3157 15.6316H73.6315V19.1053H82.3157V15.6316Z" fill="black"/>
<path d="M84.0525 29.5263H73.6315V33H84.0525V29.5263Z" fill="black"/>
<path d="M89.2631 19.1053H85.7894V29.5263H89.2631V19.1053Z" fill="black"/>
<path d="M89.2631 10.4211H85.7894V15.6316H89.2631V10.4211Z" fill="black"/>
<path d="M97.9473 15.6316H89.2631V19.1053H97.9473V15.6316Z" fill="black"/>
<path d="M99.6841 29.5263H89.2631V33H99.6841V29.5263Z" fill="black"/>
<path d="M104.895 15.6316H101.421V29.5263H104.895V15.6316Z" fill="black"/>
<path d="M111.842 29.5263H104.895V33H111.842V29.5263Z" fill="black"/>
<path d="M117.053 15.6316H113.579V36.4737H117.053V15.6316Z" fill="black"/>
<path d="M114.447 36.4737H103.158V39.9474H114.447V36.4737Z" fill="black"/>
<path d="M18.0525 45.1579H14.5789V66H18.0525V45.1579Z" fill="black"/>
<path d="M28.4737 41.6842H18.0526V45.1579H28.4737V41.6842Z" fill="black"/>
<path d="M31.9473 45.1579H28.4736V55.579H31.9473V45.1579Z" fill="black"/>
<path d="M28.4736 55.579H19.7894V59.0527H28.4736V55.579Z" fill="black"/>
<path d="M40.6315 41.6842H35.421V45.1579H40.6315V41.6842Z" fill="black"/>
<path d="M40.6316 55.579H33.6842V59.0527H40.6316V55.579Z" fill="black"/>
<path d="M44.1053 45.1579H40.6316V55.579H44.1053V45.1579Z" fill="black"/>
<path d="M51.0526 55.579H44.1052V59.0527H51.0526V55.579Z" fill="black"/>
<path d="M44.1053 36.4737H40.6316V39.9474H44.1053V36.4737Z" fill="#8C52FF"/>
<path d="M56.2631 41.6842H52.7894V45.1579H56.2631V41.6842Z" fill="black"/>
<path d="M59.7369 45.1579H56.2632V48.6316H59.7369V45.1579Z" fill="black"/>
<path d="M63.2105 48.6316H59.7368V52.1053H63.2105V48.6316Z" fill="black"/>
<path d="M66.6843 45.1579H63.2106V48.6316H66.6843V45.1579Z" fill="black"/>
<path d="M70.1579 41.6842H66.6842V45.1579H70.1579V41.6842Z" fill="black"/>
<path d="M59.7369 52.1053H56.2632V55.579H59.7369V52.1053Z" fill="black"/>
<path d="M56.2631 55.579H52.7894V59.0527H56.2631V55.579Z" fill="black"/>
<path d="M66.6843 52.1053H63.2106V55.579H66.6843V52.1053Z" fill="black"/>
<path d="M70.1579 55.579H66.6842V59.0527H70.1579V55.579Z" fill="black"/>
<path d="M75.3683 45.1579H71.8947V55.579H75.3683V45.1579Z" fill="black"/>
<path d="M85.7895 41.6842H75.3684V45.1579H85.7895V41.6842Z" fill="black"/>
<path d="M89.2631 45.1579H85.7894V48.6316H89.2631V45.1579Z" fill="black"/>
<path d="M85.7894 48.6316H77.1052V52.1053H85.7894V48.6316Z" fill="black"/>
<path d="M89.2631 55.579H75.3684V59.0527H89.2631V55.579Z" fill="black"/>
<path d="M97.9473 36.4737H92.7368V39.9474H97.9473V36.4737Z" fill="black"/>
<path d="M101.421 39.9474H97.9474V55.579H101.421V39.9474Z" fill="black"/>
<path d="M97.9474 55.579H91V59.0527H97.9474V55.579Z" fill="black"/>
<path d="M108.368 55.579H101.421V59.0527H108.368V55.579Z" fill="black"/>
<path d="M124 55.579H110.105V59.0527H124V55.579Z" fill="black"/>
<path d="M127.474 52.1053H124V55.579H127.474V52.1053Z" fill="black"/>
<path d="M124 48.6316H113.579V52.1053H124V48.6316Z" fill="black"/>
<path d="M113.579 45.1579H110.105V48.6316H113.579V45.1579Z" fill="black"/>
<path d="M127.474 41.6842H113.579V45.1579H127.474V41.6842Z" fill="black"/>
<path d="M12.8423 19.1053V15.6316L-4.52614 15.6316V19.1053H12.8423Z" fill="black"/>
<path d="M12.8423 29.5263V26.0526H-4.52614V29.5263H12.8423Z" fill="black"/>
<path d="M16.3159 27.7895V17.3684H12.8422V27.7895H16.3159Z" fill="black"/>
<path d="M19.7896 24.3158V20.8421H16.3159V24.3158H19.7896Z" fill="black"/>
<path d="M21.5264 34.7368V22.5789H18.0527V34.7368H21.5264Z" fill="black"/>
<path d="M19.7896 36.4737V33H4.15798V36.4737H19.7896Z" fill="black"/>
<path d="M5.89478 39.9473V34.7368H2.42109L2.42109 39.9473H5.89478Z" fill="black"/>
<path d="M9.36841 52.1052V38.2105H5.89472L5.89472 52.1052H9.36841Z" fill="black"/>
<path d="M9.36841 53.8421V50.3684H-1.05261V53.8421H9.36841Z" fill="black"/>
<path d="M2.42114 52.1052L2.42114 38.2105H-1.05254L-1.05254 52.1052H2.42114Z" fill="black"/>
<path d="M12.8423 3.47368H9.3686V6.94737H12.8423V3.47368ZM12.8423 10.4211H9.3686V13.8947H5.89492V10.4211H-1.05245V6.94737H-4.52614V13.8947V15.6316L9.3686 15.6316H12.8423L12.8423 10.4211ZM5.89492 5.21053L2.42123 5.21053V8.68421H5.89492L5.89492 5.21053ZM2.42123 0L-1.05245 0V3.47368L2.42123 3.47368V0Z" fill="#8C52FF"/>
</svg>
